<?xml version="1.0" standalone="no"?><!DOCTYPE svg PUBLIC "-//W3C//DTD SVG 1.1//EN" "http://www.w3.org/Graphics/SVG/1.1/DTD/svg11.dtd"><svg t="1741335672379" class="icon" viewBox="0 0 1024 1024" version="1.1" xmlns="http://www.w3.org/2000/svg" p-id="5219" xmlns:xlink="http://www.w3.org/1999/xlink" width="48" height="48"><path d="M738.1 744.6c-12.1-0.1-23.9-1.5-35.2-3.7l-0.1 90.1-0.1 59c0 8.2 6.7 14.9 14.9 14.9H756c8.2 0 14.9-6.7 14.9-14.9l0.1-58.9 0.2-89.2c-10.6 1.9-21.6 2.8-33.1 2.7z" fill="#FB536C" p-id="5220"></path><path d="M709.6 336.8C698.9 210.2 605.4 109.5 456.1 109c-149-0.5-260 114.7-257.2 256.1C201.4 492 279.1 585 386.5 612.6c11.5 3 23.4 5.1 35.5 6.5v-57.6c0-20 15.3-36.2 34.1-36.2 17.1 0 31.8 12.9 34 33.2 0.2 2 1 3.7 0.9 5.9l-0.1 54.3c12-1.4 23.6-3.6 34.8-6.3 18.6-4.6 36-10.8 52.1-18.8-0.2-3.3-0.9-6.2-0.9-9.6 0.2-73.6 52.1-142.1 126.6-157.3 4.5-20.8 7-42.7 7-65.8 0.1-8-0.3-16.1-0.9-24.1z" fill="#99C236" p-id="5221"></path><path d="M490.1 558.6c-2.2-20.3-16.9-33.2-34-33.2-18.8 0-34.1 16.2-34.1 36.2v57.6c11.2 1.3 22.5 2.2 34.1 2.1 11.9-0.1 23.3-1 34.5-2.3h0.3l0.1-54.3c0.1-2.3-0.6-4-0.9-6.1z" fill="#8F3694" p-id="5222"></path><path d="M748.8 424.9c-3.7-0.3-7-1.1-10.8-1.2-11.9-0.2-23.5 0.9-34.5 3.2-16.2 75.4-60.5 134.5-125.8 166.9 1.1 23.5 6 44.6 14.3 63 15.5 33.9 42 58.4 75 72.8 11.3 4.9 23.1 9 35.7 11.4l0.1-53c0-10.7 8.6-25.8 22.9-31.2 3.4-1.3 6.9-2.2 10.9-2.2 4.1 0.1 7.7 1 11 2.2 16.9 5.8 23.6 22.8 23.6 33.8l-0.1 51.6c12.5-2 24.1-5.4 35.1-9.8 56.6-22.3 93.2-74.4 92.9-148.1-0.3-85.4-56.9-152.6-150.3-159.4z" fill="#00A9DC" p-id="5223"></path><path d="M747.8 656.8c-3.3-1.1-6.9-2-11-2.2-4 0-7.5 0.9-10.9 2.2-14.4 5.4-22.9 20.5-22.9 31.2l-0.1 53c11.4 2.2 23.1 3.6 35.2 3.7 11.5 0.1 22.5-0.8 33.2-2.5l0.1-51.6c0-11.1-6.8-28-23.6-33.8z" fill="#8F3694" p-id="5224"></path><path d="M577 584.2c0 3.4 0.7 6.3 0.9 9.6 65.3-32.3 109.6-91.4 125.8-166.9-74.6 15.2-126.6 83.7-126.7 157.3z" fill="#029F40" p-id="5225"></path><path d="M490.6 618.9c-11.2 1.3-22.7 2.2-34.5 2.3-11.6 0.1-22.9-0.8-34.1-2.1V742.6c26.7 5.8 49.7 18.2 68.5 35.3l0.2-75 0.1-46.2 0.1-34.4c-0.1-1.1-0.2-2.2-0.3-3.4z" fill="#FB536C" p-id="5226"></path><path d="M525.7 824.5c-9-17.8-20.9-33.5-35.2-46.6l-0.3 127.1H530c8.7 0 16.4-5.8 15.3-16-2.8-23.2-9.6-44.9-19.6-64.5z" fill="#00A9DC" p-id="5227"></path><path d="M422 742.6v162.5h68.2l0.3-127.1c-18.8-17.2-41.8-29.6-68.5-35.4z" fill="#8F3694" p-id="5228"></path><path d="M386.5 738.6c-0.6 0-1.1-0.1-1.6-0.1-45.9 0.4-84.8 17.3-112.9 44.7-12.3 12-22.3 26.2-30.1 41.9 27.8 10.9 43.1 35.1 48.8 65.1 1.6 8.6-4.5 15-12.4 15H422V742.6c-11.3-2.5-23-4-35.5-4z" fill="#00A9DC" p-id="5229"></path><path d="M224.4 889.1c1.5-23.2 7.8-44.7 17.4-64.1-9.7-3.8-20.8-6-33.6-6.3-7.1 0.3-13.7 1.5-20 3.1-34.1 8.4-57 34.1-62.4 68.3-1.4 9.1 4.5 15 12.4 15h101.4c-8.6 0-15.9-5.3-15.2-16z" fill="#99C236" p-id="5230"></path><path d="M290.6 890.1c-5.7-30-21-54.1-48.8-65.1-9.7 19.4-15.9 40.9-17.4 64.1-0.7 10.7 6.6 16 15.3 16h38.5c7.9 0 14-6.5 12.4-15z" fill="#029F40" p-id="5231"></path></svg>